REM DIRINDEX 1\3,1\4,1\5,1\6,1\2\7,1\2\8,1\2\9,1\2\10,1\2\11
REM DIRNAME cjc021,folder01,folder02,folder03,folder04,folder05,folder06,folder07,folder08,folder09,folder10
TITLE ""
FILE "DISC5Track06.mp3" MP3
  TRACK 01 AUDIO
    TITLE "0:"
    INDEX 01 00:00:00
  TRACK 02 AUDIO
    TITLE "3:cjc021_4961"
    INDEX 01 00:00:23
  TRACK 03 AUDIO
    TITLE "0:"
    INDEX 01 00:01:48
  TRACK 04 AUDIO
    TITLE "4:cjc021_4962"
    INDEX 01 00:03:31
  TRACK 05 AUDIO
    TITLE "0:"
    INDEX 01 00:04:58
  TRACK 06 AUDIO
    TITLE "5:cjc021_4963"
    INDEX 01 00:05:26
  TRACK 07 AUDIO
    TITLE "0:"
    INDEX 01 00:08:54
  TRACK 08 AUDIO
    TITLE "3:cjc021_4964"
    INDEX 01 00:10:18
  TRACK 09 AUDIO
    TITLE "0:"
    INDEX 01 00:11:64
  TRACK 10 AUDIO
    TITLE "4:cjc021_4965"
    INDEX 01 00:13:41
  TRACK 11 AUDIO
    TITLE "0:"
    INDEX 01 00:15:13
  TRACK 12 AUDIO
    TITLE "5:cjc021_4966"
    INDEX 01 00:15:48
  TRACK 13 AUDIO
    TITLE "0:"
    INDEX 01 00:18:37
  TRACK 14 AUDIO
    TITLE "3:cjc021_4967"
    INDEX 01 00:19:73
  TRACK 15 AUDIO
    TITLE "0:"
    INDEX 01 00:21:21
  TRACK 16 AUDIO
    TITLE "4:cjc021_4968"
    INDEX 01 00:22:74
  TRACK 17 AUDIO
    TITLE "0:"
    INDEX 01 00:24:22
  TRACK 18 AUDIO
    TITLE "5:cjc021_4969"
    INDEX 01 00:24:59
  TRACK 19 AUDIO
    TITLE "0:"
    INDEX 01 00:27:53
  TRACK 20 AUDIO
    TITLE "3:cjc021_4970"
    INDEX 01 00:29:15
  TRACK 21 AUDIO
    TITLE "0:"
    INDEX 01 00:30:42
  TRACK 22 AUDIO
    TITLE "4:cjc021_4971"
    INDEX 01 00:32:21
  TRACK 23 AUDIO
    TITLE "0:"
    INDEX 01 00:33:48
  TRACK 24 AUDIO
    TITLE "5:cjc021_4972"
    INDEX 01 00:34:10
  TRACK 25 AUDIO
    TITLE "0:"
    INDEX 01 00:36:58
  TRACK 26 AUDIO
    TITLE "3:cjc021_4973"
    INDEX 01 00:38:20
  TRACK 27 AUDIO
    TITLE "0:"
    INDEX 01 00:39:45
  TRACK 28 AUDIO
    TITLE "4:cjc021_4974"
    INDEX 01 00:41:24
  TRACK 29 AUDIO
    TITLE "0:"
    INDEX 01 00:42:51
  TRACK 30 AUDIO
    TITLE "5:cjc021_4975"
    INDEX 01 00:43:13
  TRACK 31 AUDIO
    TITLE "0:"
    INDEX 01 00:46:70
  TRACK 32 AUDIO
    TITLE "3:cjc021_4976"
    INDEX 01 00:48:34
  TRACK 33 AUDIO
    TITLE "0:"
    INDEX 01 00:49:37
  TRACK 34 AUDIO
    TITLE "4:cjc021_4977"
    INDEX 01 00:51:13
  TRACK 35 AUDIO
    TITLE "0:"
    INDEX 01 00:52:16
  TRACK 36 AUDIO
    TITLE "5:cjc021_4978"
    INDEX 01 00:52:53
  TRACK 37 AUDIO
    TITLE "0:"
    INDEX 01 00:55:04
  TRACK 38 AUDIO
    TITLE "3:cjc021_4979"
    INDEX 01 00:56:41
  TRACK 39 AUDIO
    TITLE "0:"
    INDEX 01 00:57:54
  TRACK 40 AUDIO
    TITLE "4:cjc021_4980"
    INDEX 01 00:59:32
  TRACK 41 AUDIO
    TITLE "0:"
    INDEX 01 01:00:43
  TRACK 42 AUDIO
    TITLE "5:cjc021_4981"
    INDEX 01 01:01:07
  TRACK 43 AUDIO
    TITLE "0:"
    INDEX 01 01:03:69
  TRACK 44 AUDIO
    TITLE "3:cjc021_4982"
    INDEX 01 01:05:32
  TRACK 45 AUDIO
    TITLE "0:"
    INDEX 01 01:06:42
  TRACK 46 AUDIO
    TITLE "4:cjc021_4983"
    INDEX 01 01:08:19
  TRACK 47 AUDIO
    TITLE "0:"
    INDEX 01 01:09:28
  TRACK 48 AUDIO
    TITLE "5:cjc021_4984"
    INDEX 01 01:09:65
  TRACK 49 AUDIO
    TITLE "0:"
    INDEX 01 01:13:18
  TRACK 50 AUDIO
    TITLE "3:cjc021_4985"
    INDEX 01 01:14:59
  TRACK 51 AUDIO
    TITLE "0:"
    INDEX 01 01:15:58
  TRACK 52 AUDIO
    TITLE "4:cjc021_4986"
    INDEX 01 01:17:35
  TRACK 53 AUDIO
    TITLE "0:"
    INDEX 01 01:18:37
  TRACK 54 AUDIO
    TITLE "5:cjc021_4987"
    INDEX 01 01:18:72
  TRACK 55 AUDIO
    TITLE "0:"
    INDEX 01 01:22:13
  TRACK 56 AUDIO
    TITLE "3:cjc021_4988"
    INDEX 01 01:23:52
  TRACK 57 AUDIO
    TITLE "0:"
    INDEX 01 01:24:57
  TRACK 58 AUDIO
    TITLE "4:cjc021_4989"
    INDEX 01 01:26:36
  TRACK 59 AUDIO
    TITLE "0:"
    INDEX 01 01:27:40
  TRACK 60 AUDIO
    TITLE "5:cjc021_4990"
    INDEX 01 01:28:04
  TRACK 61 AUDIO
    TITLE "0:"
    INDEX 01 01:31:10
